<svg width="32" height="32" viewBox="0 0 32 32" fill="none" xmlns="http://www.w3.org/2000/svg">
  <defs>
    <linearGradient id="bgGrad" x1="0%" y1="0%" x2="100%" y2="100%">
      <stop offset="0%" style="stop-color:#E85D3F;stop-opacity:1" />
      <stop offset="100%" style="stop-color:#C94A2F;stop-opacity:1" />
    </linearGradient>
    <linearGradient id="plateGrad" x1="0%" y1="0%" x2="100%" y2="100%">
      <stop offset="0%" style="stop-color:#FFFFFF;stop-opacity:1" />
      <stop offset="100%" style="stop-color:#F8F8F8;stop-opacity:1" />
    </linearGradient>
  </defs>
  
  <!-- Background with rounded corners -->
  <rect width="32" height="32" rx="7.5" fill="url(#bgGrad)"/>
  
  <!-- Elegant plate/dish -->
  <ellipse cx="16" cy="20" rx="10" ry="7.5" fill="url(#plateGrad)"/>
  <ellipse cx="16" cy="20" rx="8" ry="6" fill="none" stroke="#E85D3F" stroke-width="0.6" opacity="0.15"/>
  
  <!-- Stylized fork (left) -->
  <g transform="translate(9, 5)">
    <line x1="0" y1="0" x2="0" y2="7" stroke="white" stroke-width="2" stroke-linecap="round"/>
    <line x1="-1.5" y1="2" x2="1.5" y2="2" stroke="white" stroke-width="1.8" stroke-linecap="round"/>
    <line x1="-1" y1="4.5" x2="1" y2="4.5" stroke="white" stroke-width="1.8" stroke-linecap="round"/>
    <circle cx="0" cy="0" r="1.3" fill="white"/>
  </g>
  
  <!-- Stylized knife (right) -->
  <g transform="translate(23, 5)">
    <line x1="0" y1="0" x2="0" y2="7" stroke="white" stroke-width="2" stroke-linecap="round"/>
    <line x1="0" y1="0" x2="-1.8" y2="1.8" stroke="white" stroke-width="1.8" stroke-linecap="round"/>
    <circle cx="0" cy="0" r="1.3" fill="white"/>
  </g>
  
  <!-- Three decorative dots representing menu items -->
  <circle cx="12.5" cy="22" r="1.3" fill="#E85D3F" opacity="0.85"/>
  <circle cx="16" cy="22" r="1.3" fill="#E85D3F" opacity="0.85"/>
  <circle cx="19.5" cy="22" r="1.3" fill="#E85D3F" opacity="0.85"/>
</svg>
